<svg width="220" height="47" viewBox="0 0 220 47" fill="none" xmlns="http://www.w3.org/2000/svg">
<g filter="url(#filter0_i)">
<rect width="220" height="47" fill="#EE3643"/>
</g>
<path fill-rule="evenodd" clip-rule="evenodd" d="M158.847 14.6585V29.4498H156.734V14.6585H152.978V13.0151H162.604V14.6585H158.847ZM150.712 23.3572C150.344 23.819 149.883 24.1477 149.327 24.3433C148.771 24.539 148.11 24.6368 147.343 24.6368C146.983 24.6368 146.576 24.6133 146.122 24.5664C145.668 24.5194 145.293 24.4646 144.995 24.402V29.4498H142.882V13.2498C143.477 13.0777 144.076 12.9564 144.678 12.8859C145.281 12.8155 145.934 12.7803 146.639 12.7803C147.578 12.7803 148.376 12.8781 149.034 13.0738C149.691 13.2694 150.223 13.5942 150.63 14.0481C151.037 14.502 151.334 15.1046 151.522 15.8559C151.71 16.6072 151.804 17.5385 151.804 18.6498C151.804 19.7924 151.714 20.7472 151.534 21.5142C151.354 22.2811 151.08 22.8955 150.712 23.3572ZM149.515 16.5368C149.397 15.9733 149.214 15.5272 148.963 15.1985C148.713 14.8698 148.396 14.639 148.012 14.5059C147.629 14.3729 147.171 14.3064 146.639 14.3064H144.995V22.9933H146.639C147.171 22.9933 147.629 22.9268 148.012 22.7938C148.396 22.6607 148.713 22.4298 148.963 22.1011C149.214 21.7724 149.397 21.3264 149.515 20.7629C149.632 20.1994 149.691 19.4951 149.691 18.6498C149.691 17.8046 149.632 17.1003 149.515 16.5368ZM137.6 25.2238H132.904L131.847 29.4498H129.734L133.726 13.0151H136.778L140.769 29.4498H138.656L137.6 25.2238ZM135.299 15.3629H135.205L133.256 23.5803H137.247L135.299 15.3629ZM125.156 17.2411H125.039L121.634 27.3368H119.521L116.117 17.2411H116L115.295 29.4498H113.182L114.121 13.0151H116.704L120.531 24.2846H120.625L124.452 13.0151H127.034L127.974 29.4498H125.861L125.156 17.2411ZM109.379 27.9238C108.941 28.5655 108.412 29.0194 107.794 29.2855C107.176 29.5516 106.467 29.6846 105.669 29.6846C104.871 29.6846 104.163 29.5516 103.544 29.2855C102.926 29.0194 102.398 28.5655 101.96 27.9238C101.521 27.282 101.189 26.4172 100.962 25.3294C100.735 24.2416 100.621 22.8759 100.621 21.2324C100.621 19.589 100.735 18.2233 100.962 17.1355C101.189 16.0477 101.521 15.1829 101.96 14.5411C102.398 13.8994 102.926 13.4455 103.544 13.1794C104.163 12.9133 104.871 12.7803 105.669 12.7803C106.467 12.7803 107.176 12.9133 107.794 13.1794C108.412 13.4455 108.941 13.8994 109.379 14.5411C109.817 15.1829 110.15 16.0477 110.377 17.1355C110.604 18.2233 110.717 19.589 110.717 21.2324C110.717 22.8759 110.604 24.2416 110.377 25.3294C110.15 26.4172 109.817 27.282 109.379 27.9238ZM108.357 17.7577C108.193 16.8498 107.978 16.1298 107.712 15.5977C107.446 15.0655 107.133 14.6977 106.773 14.4942C106.413 14.2907 106.045 14.189 105.669 14.189C105.294 14.189 104.926 14.2907 104.566 14.4942C104.206 14.6977 103.893 15.0655 103.627 15.5977C103.361 16.1298 103.145 16.8498 102.981 17.7577C102.817 18.6655 102.734 19.8238 102.734 21.2324C102.734 22.6411 102.817 23.7994 102.981 24.7072C103.145 25.6151 103.361 26.3351 103.627 26.8672C103.893 27.3994 104.206 27.7672 104.566 27.9707C104.926 28.1742 105.294 28.2759 105.669 28.2759C106.045 28.2759 106.413 28.1742 106.773 27.9707C107.133 27.7672 107.446 27.3994 107.712 26.8672C107.978 26.3351 108.193 25.6151 108.357 24.7072C108.522 23.7994 108.604 22.6411 108.604 21.2324C108.604 19.8238 108.522 18.6655 108.357 17.7577ZM95.691 21.9368H90.7605V29.4498H88.6475V13.0151H90.7605V20.2933H95.691V13.0151H97.804V29.4498H95.691V21.9368ZM84.5396 29.4498L81.6048 22.4064L78.67 29.4498H76.557L80.0787 20.9977L76.9091 13.0151H79.0222L81.6048 19.589L84.1874 13.0151H86.3004L83.1309 20.9977L86.6526 29.4498H84.5396ZM67.283 13.0151H75.2657V14.6585H69.3961V20.0585H74.5613V21.702H69.3961V27.8064H75.2657V29.4498H67.283V13.0151ZM61.6483 29.4498H59.5352V14.6585H55.7787V13.0151H65.4048V14.6585H61.6483V29.4498Z" fill="white"/>
<defs>
<filter id="filter0_i" x="0" y="0" width="220" height="47" filterUnits="userSpaceOnUse" color-interpolation-filters="sRGB">
<feFlood flood-opacity="0" result="BackgroundImageFix"/>
<feBlend mode="normal" in="SourceGraphic" in2="BackgroundImageFix" result="shape"/>
<feColorMatrix in="SourceAlpha" type="matrix" values="0 0 0 0 0 0 0 0 0 0 0 0 0 0 0 0 0 0 127 0" result="hardAlpha"/>
<feOffset dy="-5"/>
<feComposite in2="hardAlpha" operator="arithmetic" k2="-1" k3="1"/>
<feColorMatrix type="matrix" values="0 0 0 0 0 0 0 0 0 0 0 0 0 0 0 0 0 0 0.24 0"/>
<feBlend mode="normal" in2="shape" result="effect1_innerShadow"/>
</filter>
</defs>
</svg>
